<svg xmlns="http://www.w3.org/2000/svg" width="700pt" height="700pt" fill="#fff" stroke="#fff" viewBox="0 0 700 700">
  <path d="M350 179.2a100.812 100.812 0 0 0-71.277 29.523C259.821 227.629 249.2 253.266 249.2 280s10.621 52.371 29.523 71.277C297.629 370.179 323.266 380.8 350 380.8s52.371-10.621 71.277-29.523C440.179 332.371 450.8 306.734 450.8 280s-10.621-52.371-29.523-71.277A100.812 100.812 0 0 0 350 179.2zm0 196a95.18 95.18 0 0 1-67.316-27.883 95.187 95.187 0 0 1-27.883-67.316 95.18 95.18 0 0 1 27.883-67.316c17.852-17.855 42.066-27.883 67.316-27.883s49.465 10.027 67.316 27.883c17.855 17.852 27.883 42.066 27.883 67.316s-10.027 49.465-27.883 67.316A95.187 95.187 0 0 1 350 375.2z"/>
  <path d="M351.46 246.4a33.934 33.934 0 0 1 31.75 22.402l13.215-4.816h.004a47.798 47.798 0 0 0-24.027-26.938v-16.801h-14v12.656a43.098 43.098 0 0 0-7.055-.559c-2.344 0-4.683.168-7 .504v-12.824h-13.945v16.8a47.875 47.875 0 0 0-23.562 25.61 47.887 47.887 0 0 0 0 34.797 47.875 47.875 0 0 0 23.562 25.609v16.8h14v-12.265a48.3 48.3 0 0 0 7 .504 42.72 42.72 0 0 0 7.059-.559v12.656h13.94v-16.8a47.777 47.777 0 0 0 23.915-26.489l-13.215-4.816a33.625 33.625 0 0 1-15.754 17.848 33.626 33.626 0 0 1-23.625 2.93 33.617 33.617 0 0 1-19.637-13.457 33.62 33.62 0 0 1-5.793-23.09 33.634 33.634 0 0 1 10.957-21.133 33.615 33.615 0 0 1 22.21-8.57z"/>
  <path d="M350 154a125.981 125.981 0 0 0-89.094 36.906C237.273 214.535 224 246.582 224 280s13.273 65.465 36.906 89.094C284.535 392.727 316.582 406 350 406s65.465-13.273 89.094-36.906A125.981 125.981 0 0 0 476 280a126.113 126.113 0 0 0-126-126zm0 238a112.001 112.001 0 0 1 0-224 112.001 112.001 0 0 1 0 224z"/>
</svg>